<svg width="28" height="29" viewBox="0 0 28 29" fill="none" xmlns="http://www.w3.org/2000/svg">
<path d="M10.5 26.1666H17.5C23.3334 26.1666 25.6667 23.8333 25.6667 18V11C25.6667 5.16665 23.3334 2.83331 17.5 2.83331H10.5C4.66671 2.83331 2.33337 5.16665 2.33337 11V18C2.33337 23.8333 4.66671 26.1666 10.5 26.1666Z" stroke="#64B6AC" stroke-width="1.75" stroke-linecap="round" stroke-linejoin="round"/>
<path d="M14.9251 10.0319L8.93509 16.3721C8.70891 16.6129 8.49003 17.0871 8.44626 17.4155L8.17631 19.7794C8.08146 20.633 8.69432 21.2167 9.54065 21.0707L11.89 20.6695C12.2183 20.6111 12.6779 20.3703 12.9041 20.1223L18.8941 13.7821C19.9301 12.6877 20.3971 11.4401 18.7846 9.91521C17.1795 8.40494 15.9611 8.93755 14.9251 10.0319Z" stroke="#64B6AC" stroke-width="1.75" stroke-miterlimit="10" stroke-linecap="round" stroke-linejoin="round"/>
<path d="M13.9253 11.0898C14.239 13.1035 15.8733 14.643 17.9016 14.8473" stroke="#64B6AC" stroke-width="1.75" stroke-miterlimit="10" stroke-linecap="round" stroke-linejoin="round"/>
</svg>
